<svg xmlns="http://www.w3.org/2000/svg" width="60" height="40" viewBox="0 0 60 40">
  <rect width="60" height="40" fill="#b22234"/>
  <g fill="#fff">
    <rect y="3.0769" width="60" height="3.0769"/>
    <rect y="9.2308" width="60" height="3.0769"/>
    <rect y="15.3846" width="60" height="3.0769"/>
    <rect y="21.5385" width="60" height="3.0769"/>
    <rect y="27.6923" width="60" height="3.0769"/>
    <rect y="33.8462" width="60" height="3.0769"/>
  </g>
  <rect width="24" height="21.5385" fill="#3c3b6e"/>
  <g fill="#fff">
    <!-- Simplified stars grid -->
    <circle cx="3" cy="3" r="0.8"/>
    <circle cx="7" cy="3" r="0.8"/>
    <circle cx="11" cy="3" r="0.8"/>
    <circle cx="15" cy="3" r="0.8"/>
    <circle cx="19" cy="3" r="0.8"/>

    <circle cx="5" cy="6" r="0.8"/>
    <circle cx="9" cy="6" r="0.8"/>
    <circle cx="13" cy="6" r="0.8"/>
    <circle cx="17" cy="6" r="0.8"/>
    <circle cx="21" cy="6" r="0.8"/>

    <circle cx="3" cy="9" r="0.8"/>
    <circle cx="7" cy="9" r="0.8"/>
    <circle cx="11" cy="9" r="0.8"/>
    <circle cx="15" cy="9" r="0.8"/>
    <circle cx="19" cy="9" r="0.8"/>

    <circle cx="5" cy="12" r="0.8"/>
    <circle cx="9" cy="12" r="0.8"/>
    <circle cx="13" cy="12" r="0.8"/>
    <circle cx="17" cy="12" r="0.8"/>
    <circle cx="21" cy="12" r="0.8"/>

    <circle cx="3" cy="15" r="0.8"/>
    <circle cx="7" cy="15" r="0.8"/>
    <circle cx="11" cy="15" r="0.8"/>
    <circle cx="15" cy="15" r="0.8"/>
    <circle cx="19" cy="15" r="0.8"/>

    <circle cx="5" cy="18" r="0.8"/>
    <circle cx="9" cy="18" r="0.8"/>
    <circle cx="13" cy="18" r="0.8"/>
    <circle cx="17" cy="18" r="0.8"/>
    <circle cx="21" cy="18" r="0.8"/>
  </g>
</svg>

